<?xml version="1.0" encoding="UTF-8"?><svg xmlns="http://www.w3.org/2000/svg" xmlns:xlink="http://www.w3.org/1999/xlink" viewBox="0 0 248 160"><defs><style>.e,.f{stroke:#686868;stroke-linecap:round;stroke-linejoin:round;stroke-width:1.25px;}.e,.g{fill:#fff;}.f{fill:none;}.h,.i{fill:#ff6c37;}.j{fill:#686868;}.k{fill:#262626;mix-blend-mode:multiply;opacity:.3;}.l,.m,.n,.o,.i{opacity:.7;}.p{isolation:isolate;}.m{fill:url(#d);}.n{fill:url(#c);}.o{fill:url(#b);}</style><linearGradient id="b" x1="84.22" y1="50.55" x2="134.94" y2="50.55" gradientTransform="matrix(1, 0, 0, 1, 0, 0)" gradientUnits="userSpaceOnUse"><stop offset="0" stop-color="#ff7002"/><stop offset=".3" stop-color="#fe7203"/><stop offset=".5" stop-color="#fc7b0a"/><stop offset=".68" stop-color="#f88b15"/><stop offset=".84" stop-color="#f2a024"/><stop offset=".98" stop-color="#ebbc38"/><stop offset="1" stop-color="#ebc03b"/></linearGradient><linearGradient id="c" x1="67.76" y1="87.96" x2="103.69" y2="87.96" xlink:href="#b"/><linearGradient id="d" x1="128.13" y1="71.9" x2="137.68" y2="71.9" xlink:href="#b"/></defs><g class="p"><g id="a"><path class="k" d="M77.55,149.35c-1.85,1.88-4.43,3.07-7.35,3.07h0c-3.26,0-6.2-1.52-8.1-3.93-2.58-.06-5.26-.1-8.03-.1s-5.45,.03-8.02,.1c-1.67,2.5-4.52,4.15-7.76,4.15-.39,0-.78,0-1.17,0-2.81,0-5.34-1.26-7.04-3.24-6.34,.64-10.28,1.52-10.28,2.5,0,1.94,15.34,3.51,34.27,3.51s34.27-1.57,34.27-3.51c0-1.01-4.15-1.91-10.79-2.55Z"/><path class="k" d="M210.06,150.47c-1.75,3.18-5.09,4.33-8.97,4.42h0c-4.52,.11-7.38-1.28-9.37-5.4-1.93-.03-3.92-.05-5.95-.05-3.8,0-7.45,.06-10.87,.18-1.59,3.56-5.11,4.97-9.17,5.06h0c-3.69,.08-6.96-.76-8.84-3.62-3.41,.55-5.4,1.19-5.4,1.89,0,1.94,15.34,3.51,34.27,3.51s34.27-1.57,34.27-3.51c0-.97-3.81-1.84-9.97-2.47Z"/><path class="f" d="M152.75,37.92l-3.6,1.65c-.67,.31-1.11,1.02-1.11,1.82v3.66c0,.89,.54,1.67,1.32,1.9l3.82,1.15"/><path class="f" d="M206.8,38.01l3.6,1.65c.67,.31,1.11,1.02,1.11,1.82v3.66c0,.89-.54,1.67-1.32,1.9l-3.82,1.15"/><g/><g><g><path class="f" d="M205.32,34.61c.72,2.36,1.22,4.57,1.35,7.17,.73,14.82-10.7,27.43-25.53,28.16-14.82,.73-27.43-10.7-28.16-25.53-.73-14.82,10.7-27.43,25.53-28.16,7.15-.35,13.78,2.13,18.82,6.45,0,0,5.76,4.62,7.99,11.91Z"/><path class="f" d="M202.73,82.84l8.35,59.72c.26,1.41,.32,2.88-.02,4.28-1.09,4.52-5.11,7.93-9.98,8.04h0c-5.7,.14-8.77-3.75-10.77-9.99l-6.72-22.38-7.1-5.16"/></g><path class="f" d="M157.79,78.44s-1.78,17.14-1.63,23.78l-.96,41.94c-.12,5.86,4.66,10.63,10.52,10.51h0c5.07-.11,9.3-3.89,9.98-8.91l2.21-26.72"/><path class="f" d="M162.03,63.5c-3.73,5.97-4.24,15.24-4.24,15.24-4.84-12.56,.65-18.71,.65-18.71"/><line class="e" x1="181.27" y1="12.68" x2="180.98" y2="15.63"/><g class="l"><circle class="g" cx="181.68" cy="8.26" r="3.81"/></g><circle class="i" cx="181.62" cy="8.87" r="3.81"/><circle class="f" cx="181.62" cy="8.87" r="3.81"/><rect class="f" x="183.64" y="76" width="6.87" height="7.06" rx=".6" ry=".6"/><path class="f" d="M138.14,78.82c4.83,.82,11.72,1.73,19.38,.81"/><path class="f" d="M158.83,60.15s-8.12,4.24-20.69,.67"/></g><path class="f" d="M159.94,43.17c-.25,8.05,8.41,17.1,19.44,17.44,11.02,.34,20.23-8.15,20.48-16.2,.25-8.05,0-14.59-19.5-15.2-18.62-.57-20.17,5.91-20.42,13.95Z"/><path class="f" d="M200.03,60.95s12.7-2.71,25.86-11.89c3.74-2.61,8.7-1.49,11.06,2.3h0c2.25,3.63,1.63,9.09-1.37,12.15-3.57,3.65-8.3,7.11-15.67,10.75-10.66,5.26-16.96,6.38-16.96,6.38"/><path class="f" d="M197.99,62.84s-2.37,15.29,4.5,21.51"/><path class="f" d="M202.89,60.94s-1.16,13.38-.13,22.02"/><path class="f" d="M205.27,52.89h.54c1.8,0,3.26,1.46,3.26,3.26v1.54"/><polyline class="o" points="99 46.33 84.22 54.78 124.02 54.78 134.94 46.33"/><path class="f" d="M41.18,59.19l-1.22-1c-6.15-5.44-9.84-13.6-9.18-22.59,.99-13.58,12.19-24.55,25.79-25.28,15.82-.86,28.91,11.72,28.91,27.35,0,1.37-.14,2.78-.4,4.2-2.3,12.5-13.14,21.59-25.8,22.59-.34,.03-1.45-.2-1.8-.18"/><g class="l"><circle class="h" cx="40.36" cy="7.74" r="3.88"/></g><circle class="f" cx="40.36" cy="7.74" r="3.88"/><line class="f" x1="42.53" y1="10.98" x2="44.33" y2="13.98"/><polyline class="n" points="67.92 93.51 83.85 99.19 89.81 98.49 93.55 92.4 93.27 86.3 86.48 81.87 72.08 75.5 67.93 72.77 67.76 67.63 103.69 67.63 103.69 108.3 67.76 108.3 67.76 93.98"/><polyline class="f" points="67.76 72.86 67.76 67.63 103.69 67.63 103.69 108.3 67.76 108.3 67.76 93.98"/><line class="f" x1="127.45" y1="85.88" x2="119.25" y2="85.88"/><polyline class="f" points="99 46.33 134.94 46.33 134.94 51.23"/><line class="f" x1="99" y1="59.16" x2="99" y2="54.74"/><path class="f" d="M70.37,61.06c-6.29-6.2-6.09-16.44-.64-23.66,3.46-4.59,9.09-6.36,14.97-5.55"/><circle class="f" cx="50.9" cy="36.74" r="4.1"/><polyline class="f" points="99 46.33 84.22 54.78 124.02 54.78 134.94 46.33"/><path class="f" d="M58.46,113.65l-2.61,1.2c-5.11,2.34-8.37,7.46-8.34,13.08l.09,15.32c.04,5.17-4.14,9.39-9.32,9.39-.39,0-.78,0-1.17,0-5.05,0-9.17-4.04-9.29-9.09l-.24-12.93c-.17-4.5-.2-13.27-.09-17.77,.39-15.46,1.52-33.19,5.95-46.96l3.41-10.99"/><path class="f" d="M53.09,86.13s-14.31,15.54-23.93,3.02"/><path class="f" d="M48.73,81.27s-11.43,11.39-18.68,.9"/><path class="f" d="M27.89,94.4l-4.76-.48c-3.07-.31-5.38-2.91-5.35-5.99,.11-11.44,4.31-24.7,7.19-32.41,.92-2.45,3.65-3.66,6.08-2.7l5.31,2.1"/><polyline class="f" points="83.67 67.19 83.67 59.71 118.57 59.71 118.57 99.98 103.83 99.98"/><path class="f" d="M84.25,45.48s13.94-9.58,27.04,.87"/><path class="f" d="M75.1,108.34s1.71,17.45,5.12,31.29c1.61,6.51-3.32,12.79-10.03,12.79h0c-5.14,0-9.5-3.78-10.23-8.87l-4.11-28.7"/><path class="f" d="M57.5,64.29s11.3,12.79,29.82,17.78c4.41,1.19,7.18,5.52,6.28,10h0c-.95,4.69-5.68,8.2-10.23,6.69-12.5-4.16-28.73-8.81-34.33-17.76"/><path class="f" d="M33.44,65.88s2.4-7.98,12.98-5.9"/><line class="f" x1="90.71" y1="64.24" x2="113.85" y2="64.24"/><line class="f" x1="103.76" y1="69.63" x2="113.85" y2="69.63"/><line class="f" x1="104.77" y1="75.03" x2="113.85" y2="75.03"/><line class="f" x1="104.85" y1="80.43" x2="113.85" y2="80.43"/><polygon class="m" points="137.68 82.06 128.13 94.39 128.13 57.75 137.59 49.42 137.68 82.06"/><polygon class="f" points="137.68 82.06 128.13 94.39 128.13 57.75 137.59 49.42 137.68 82.06"/><polygon class="j" points="7.08 101.63 9.4 102.67 7.03 103.59 5.99 105.91 5.07 103.54 2.75 102.5 5.12 101.58 6.16 99.26 7.08 101.63"/><polygon class="j" points="222.67 26.1 225 27.14 222.63 28.06 221.59 30.38 220.67 28.01 218.34 26.97 220.71 26.05 221.75 23.73 222.67 26.1"/><polygon class="f" points="125.48 16.48 128.79 17.96 125.41 19.28 123.93 22.59 122.62 19.21 119.31 17.73 122.69 16.41 124.17 13.1 125.48 16.48"/><polygon class="f" points="240.02 96.74 243.33 98.22 239.95 99.53 238.47 102.84 237.15 99.46 233.84 97.98 237.22 96.67 238.7 93.36 240.02 96.74"/><path class="f" d="M209.3,79.14l.25,12.12c-.03,1.93-1.56,3.49-3.48,3.56l-1.49,.05"/></g></g></svg>